<svg viewBox="0 0 115 29" fill="none" xmlns="http://www.w3.org/2000/svg">
<path d="M15.1739 28.1844C11.9387 28.1844 9.17435 27.5964 6.88076 26.4203C4.61132 25.2443 2.89716 23.6053 1.7383 21.5035C0.579433 19.4016 0 16.962 0 14.1845C0 11.407 0.579433 8.96737 1.7383 6.86552C2.89716 4.76366 4.61132 3.1247 6.88076 1.94866C9.17435 0.772621 11.9387 0.184601 15.1739 0.184601C18.0228 0.184601 20.5216 0.635 22.6703 1.5358C24.8432 2.41157 26.5573 3.67519 27.8128 5.32665C29.0923 6.97811 29.8528 8.90482 30.0943 11.1068H22.3806C22.0184 9.53038 21.2217 8.27927 19.9904 7.35345C18.7591 6.40261 17.1536 5.92718 15.1739 5.92718C12.7354 5.92718 10.8764 6.6278 9.59685 8.02904C8.34141 9.40526 7.7137 11.2194 7.7137 13.4714V14.8976C7.7137 17.1496 8.34141 18.9762 9.59685 20.3775C10.8764 21.7537 12.7354 22.4418 15.1739 22.4418C17.2502 22.4418 18.904 21.9288 20.1353 20.9029C21.3907 19.877 22.1754 18.5133 22.4892 16.8118H30.1667C29.9977 19.1139 29.2734 21.1281 27.9938 22.8547C26.7384 24.5562 25.0122 25.8698 22.8152 26.7957C20.6423 27.7215 18.0952 28.1844 15.1739 28.1844Z" fill="white"/>
<path d="M32.8713 0.860199H40.2591V21.8037H54.7811V27.5088H32.8713V0.860199Z" fill="white"/>
<path d="M69.2197 28.1844C65.0912 28.1844 61.844 27.2961 59.478 25.5195C57.1361 23.7179 55.9652 21.1156 55.9652 17.7126V0.860199H63.3529V17.1496C63.3529 18.676 63.7513 19.9271 64.548 20.9029C65.3689 21.8788 66.7209 22.3667 68.604 22.3667H69.8716C71.7306 22.3667 73.0584 21.8788 73.8552 20.9029C74.6519 19.9271 75.0502 18.676 75.0502 17.1496V0.860199H82.438V17.7126C82.438 21.1156 81.255 23.7179 78.889 25.5195C76.523 27.2961 73.2999 28.1844 69.2197 28.1844Z" fill="white"/>
<path d="M109.101 13.584C110.598 14.0093 111.805 14.7475 112.722 15.7984C113.64 16.8494 114.098 18.2131 114.098 19.8895C114.098 22.2416 113.326 24.1058 111.781 25.482C110.235 26.8332 108.123 27.5088 105.443 27.5088H86.6114V0.860199H104.32C106.928 0.860199 109.04 1.47324 110.658 2.69933C112.275 3.92541 113.084 5.67696 113.084 7.95398C113.084 9.43029 112.71 10.6439 111.962 11.5947C111.213 12.5205 110.26 13.1836 109.101 13.584ZM93.9992 6.41512V11.2569H102.727C103.62 11.2569 104.332 11.0692 104.864 10.6939C105.395 10.3186 105.66 9.75557 105.66 9.00491V8.62958C105.66 7.90393 105.395 7.35345 104.864 6.97811C104.357 6.60278 103.668 6.41512 102.799 6.41512H93.9992ZM106.602 19.1764C106.602 18.3507 106.312 17.7251 105.733 17.2997C105.177 16.8744 104.441 16.6617 103.524 16.6617H93.9992V21.9539H103.524C104.465 21.9539 105.214 21.7537 105.769 21.3533C106.324 20.928 106.602 20.3024 106.602 19.4767V19.1764Z" fill="white"/>
</svg>
